<svg width="60" height="60" viewBox="0 0 60 60" fill="none" xmlns="http://www.w3.org/2000/svg">
<path d="M30 0C13.4583 0 0 13.4583 0 30C0 46.5417 13.4583 60 30 60C46.543 60 60 46.5417 60 30C60 13.4583 46.543 0 30 0ZM30 57.3913C14.8957 57.3913 2.6087 45.1044 2.6087 30C2.6087 14.8957 14.8957 2.6087 30 2.6087C45.103 2.6087 57.3913 14.8957 57.3913 30C57.3913 45.1044 45.103 57.3913 30 57.3913Z" fill="#44001A"/>
<path d="M23.4783 27.3913C23.4783 25.2339 21.7226 23.4783 19.5652 23.4783C17.4078 23.4783 15.6522 25.2339 15.6522 27.3913C15.6522 29.5487 17.4078 31.3043 19.5652 31.3043C21.7226 31.3043 23.4783 29.5487 23.4783 27.3913ZM18.2609 27.3913C18.2609 26.6726 18.8465 26.087 19.5652 26.087C20.2839 26.087 20.8696 26.6726 20.8696 27.3913C20.8696 28.11 20.2839 28.6957 19.5652 28.6957C18.8465 28.6957 18.2609 28.11 18.2609 27.3913Z" fill="#44001A"/>
<path d="M40.4348 23.4783C38.2774 23.4783 36.5218 25.2339 36.5218 27.3913C36.5218 29.5487 38.2774 31.3043 40.4348 31.3043C42.5922 31.3043 44.3478 29.5487 44.3478 27.3913C44.3478 25.2339 42.5922 23.4783 40.4348 23.4783ZM40.4348 28.6957C39.7148 28.6957 39.1304 28.11 39.1304 27.3913C39.1304 26.6726 39.7148 26.087 40.4348 26.087C41.1548 26.087 41.7391 26.6726 41.7391 27.3913C41.7391 28.11 41.1548 28.6957 40.4348 28.6957Z" fill="#44001A"/>
<path d="M35.2187 18.2609C35.4144 18.2609 35.6139 18.2165 35.8005 18.1239L41.0178 15.5152C41.6622 15.193 41.923 14.4091 41.6009 13.7648C41.2774 13.1204 40.4935 12.8583 39.8504 13.1817L34.6331 15.7904C33.9887 16.1126 33.7279 16.8965 34.05 17.5409C34.2796 17.9974 34.74 18.2609 35.2187 18.2609Z" fill="#44001A"/>
<path d="M18.9822 15.5152L24.1996 18.1239C24.3861 18.2165 24.5856 18.2609 24.7813 18.2609C25.26 18.2609 25.7204 17.9974 25.95 17.5396C26.2722 16.8952 26.0113 16.1113 25.3669 15.7892L20.1496 13.1805C19.5026 12.857 18.7213 13.1205 18.3991 13.7635C18.0756 14.4092 18.3378 15.1918 18.9822 15.5152Z" fill="#44001A"/>
<path d="M30 36.5218C25.1361 36.5218 20.503 38.5826 17.2891 42.1735C16.8091 42.7109 16.8548 43.5352 17.3909 44.0152C17.9283 44.4965 18.7526 44.4496 19.2326 43.9135C21.9535 40.873 25.877 39.1304 30 39.1304C34.1204 39.1304 38.0452 40.873 40.7674 43.9135C41.0243 44.2017 41.3817 44.3478 41.7391 44.3478C42.0496 44.3478 42.3613 44.2383 42.6091 44.0152C43.1452 43.5339 43.1909 42.7109 42.7109 42.1735C39.4943 38.5813 34.8626 36.5218 30 36.5218Z" fill="#44001A"/>
</svg>
