<svg width="13" height="15" viewBox="0 0 13 15" fill="none" xmlns="http://www.w3.org/2000/svg">
	<path d="M2.40887 5.96672L1.2916 4.84152C0.578447 5.7607 0.134707 6.8225 0 7.92393H1.60063C1.71157 7.23455 1.98891 6.56101 2.40887 5.96672ZM1.60063 9.50872H0C0.134707 10.6101 0.570523 11.6719 1.28368 12.5911L2.40095 11.4659C1.98891 10.8716 1.71157 10.206 1.60063 9.50872ZM2.40095 13.7242C3.32013 14.4374 4.38986 14.8653 5.49128 15V13.3914C4.8019 13.2726 4.13629 13.0032 3.542 12.5753L2.40095 13.7242ZM7.07607 2.43265V0L3.47068 3.60539L7.07607 7.13154V4.03328C9.32647 4.41363 11.038 6.36292 11.038 8.71632C11.038 11.0697 9.32647 13.019 7.07607 13.3994V15C10.206 14.6117 12.6228 11.9493 12.6228 8.71632C12.6228 5.48336 10.206 2.82092 7.07607 2.43265Z" fill="#F5CCE8" />
</svg>
