<?xml version="1.0" encoding="UTF-8"?>
<svg enable-background="new 0 0 511.999 511.999" version="1.1" viewBox="0 0 512 512" xml:space="preserve" xmlns="http://www.w3.org/2000/svg">
	<path fill="#44001A" d="m467.62 65.067c-58.181-58.181-152.24-59.153-211.62-2.919-59.383-56.235-153.44-55.263-211.62 2.919-59.17 59.171-59.17 155.45 0 214.62l211.62 211.62 211.62-211.62c59.17-59.17 59.17-155.45 0-214.62zm-21.22 193.4-190.4 190.4-190.4-190.4c-47.47-47.471-47.469-124.71 0-172.18 23.736-23.735 54.913-35.603 86.091-35.603s62.355 11.868 86.091 35.603l22.818 22.818-51.636 51.636 51.636 51.636-51.636 51.636 51.636 51.636-34.94 34.94 21.22 21.22 56.161-56.16-51.636-51.636 51.636-51.636-51.636-51.636 51.636-51.636-25.76-25.759c47.674-44.499 122.66-43.524 169.12 2.941 47.468 47.471 47.469 124.71-1e-3 172.18z" />
</svg>
