<svg width="60" height="60" viewBox="0 0 60 60" fill="none" xmlns="http://www.w3.org/2000/svg">
<path d="M29.97 0C13.41 0 0 13.44 0 30C0 46.56 13.41 60 29.97 60C46.56 60 60 46.56 60 30C60 13.44 46.56 0 29.97 0ZM30 54C16.74 54 6 43.26 6 30C6 16.74 16.74 6 30 6C43.26 6 54 16.74 54 30C54 43.26 43.26 54 30 54ZM40.5 27C42.99 27 45 24.99 45 22.5C45 20.01 42.99 18 40.5 18C38.01 18 36 20.01 36 22.5C36 24.99 38.01 27 40.5 27ZM19.5 27C21.99 27 24 24.99 24 22.5C24 20.01 21.99 18 19.5 18C17.01 18 15 20.01 15 22.5C15 24.99 17.01 27 19.5 27ZM30 46.5C36.99 46.5 42.93 42.12 45.33 36H14.67C17.07 42.12 23.01 46.5 30 46.5Z" fill="#44001A"/>
</svg>
