<svg width="60" height="60" viewBox="0 0 60 60" fill="none" xmlns="http://www.w3.org/2000/svg">
<path d="M51.2133 8.78672C45.5469 3.12059 38.0133 0 30 0C21.9867 0 14.4531 3.12059 8.78672 8.78672C3.12059 14.4531 0 21.9867 0 30C0 38.0133 3.12059 45.5469 8.78672 51.2133C14.4531 56.8794 21.9867 60 30 60C38.0133 60 45.5469 56.8794 51.2133 51.2133C56.8794 45.5469 60 38.0133 60 30C60 21.9867 56.8794 14.4531 51.2133 8.78672ZM48.7273 48.7273C43.725 53.7295 37.0743 56.4844 30 56.4844C22.9257 56.4844 16.275 53.7295 11.2727 48.7273C6.27047 43.725 3.51562 37.0743 3.51562 30C3.51562 22.9257 6.27047 16.275 11.2727 11.2727C16.275 6.27047 22.9257 3.51562 30 3.51562C37.0743 3.51562 43.725 6.27047 48.7273 11.2727C53.7295 16.275 56.4844 22.9257 56.4844 30C56.4844 37.0743 53.7295 43.725 48.7273 48.7273Z" fill="#44001A"/>
<path d="M30 31.8225C22.2802 31.8225 15.9995 38.1032 15.9995 45.823H19.5151C19.5151 40.0417 24.2187 35.3381 30 35.3381C35.7813 35.3381 40.4849 40.0417 40.4849 45.823H44.0005C44.0005 38.103 37.7198 31.8225 30 31.8225Z" fill="#44001A"/>
<path d="M25.1687 18.5852H21.6531C21.6531 20.2269 20.3175 21.5625 18.6758 21.5625C17.0341 21.5625 15.6986 20.2269 15.6986 18.5852H12.1829C12.1829 22.1654 15.0956 25.0781 18.6758 25.0781C22.256 25.0781 25.1687 22.1654 25.1687 18.5852Z" fill="#44001A"/>
<path d="M41.3242 21.5625C39.6825 21.5625 38.3469 20.2269 38.3469 18.5852H34.8313C34.8313 22.1654 37.744 25.0781 41.3242 25.0781C44.9044 25.0781 47.8171 22.1654 47.8171 18.5852H44.3014C44.3014 20.2269 42.9659 21.5625 41.3242 21.5625Z" fill="#44001A"/>
</svg>
